<svg width="20" height="20" viewBox="0 0 20 20" fill="none" xmlns="http://www.w3.org/2000/svg">
<path fill-rule="evenodd" clip-rule="evenodd" d="M0.580017 1.5C0.580017 1.08579 0.915807 0.75 1.33002 0.75H2.71199C3.37484 0.75 3.9808 1.1245 4.27723 1.71738L4.79355 2.75H18.4684C19.4282 2.75 20.0299 3.78685 19.5537 4.62017L16.2691 10.3682C15.9575 10.9135 15.3777 11.25 14.7497 11.25H7.24569L5.92227 13.3675C5.8182 13.534 5.93791 13.75 6.13427 13.75H17.33C17.7442 13.75 18.08 14.0858 18.08 14.5C18.08 14.9142 17.7442 15.25 17.33 15.25H6.13427C4.75976 15.25 3.92178 13.7381 4.65027 12.5725L6.00161 10.4103L3.639 3.795L2.93559 2.3882C2.89324 2.3035 2.80668 2.25 2.71199 2.25H1.33002C0.915807 2.25 0.580017 1.91421 0.580017 1.5ZM5.39429 4.25L7.35857 9.75H14.7497C14.8394 9.75 14.9222 9.7019 14.9668 9.624L18.0376 4.25H5.39429ZM8.33002 18C8.33002 18.8284 7.65845 19.5 6.83002 19.5C6.00159 19.5 5.33002 18.8284 5.33002 18C5.33002 17.1716 6.00159 16.5 6.83002 16.5C7.65845 16.5 8.33002 17.1716 8.33002 18ZM15.83 19.5C16.6584 19.5 17.33 18.8284 17.33 18C17.33 17.1716 16.6584 16.5 15.83 16.5C15.0016 16.5 14.33 17.1716 14.33 18C14.33 18.8284 15.0016 19.5 15.83 19.5Z" fill="#FC8507"/>
</svg>
