<svg width="21" height="21" viewBox="0 0 21 21" fill="none" xmlns="http://www.w3.org/2000/svg">
<path fill-rule="evenodd" clip-rule="evenodd" d="M3.99799 1.91797C2.7552 1.91797 1.74799 2.92518 1.74799 4.16797V16.832C1.74799 18.0748 2.7552 19.082 3.99799 19.082H16.664C17.9067 19.082 18.9142 18.0747 18.915 16.8315V4.16797C18.915 2.92518 17.9078 1.91797 16.665 1.91797H3.99799ZM0.247986 4.16797C0.247986 2.09676 1.92678 0.417969 3.99799 0.417969H16.665C18.7362 0.417969 20.415 2.09676 20.415 4.16797V16.832C20.4137 18.9027 18.7353 20.582 16.664 20.582H3.99799C1.92678 20.582 0.247986 18.9032 0.247986 16.832V4.16797ZM10.331 5.75097C10.7452 5.75097 11.081 6.08675 11.081 6.50097V14.499C11.081 14.9132 10.7452 15.249 10.331 15.249C9.91682 15.249 9.58102 14.9132 9.58102 14.499V6.50097C9.58102 6.08675 9.91682 5.75097 10.331 5.75097ZM14.331 8.74997C14.7452 8.74997 15.081 9.08576 15.081 9.49997V14.499C15.081 14.9132 14.7452 15.249 14.331 15.249C13.9168 15.249 13.581 14.9132 13.581 14.499V9.49997C13.581 9.08575 13.9168 8.74997 14.331 8.74997ZM6.33099 11.083C6.7452 11.083 7.08099 11.4188 7.08099 11.833V14.499C7.08099 14.9132 6.7452 15.249 6.33099 15.249C5.91678 15.249 5.58099 14.9132 5.58099 14.499V11.833C5.58099 11.4188 5.91678 11.083 6.33099 11.083Z" fill="#FC8507"/>
</svg>
