<svg width="23" height="20" viewBox="0 0 23 20" fill="none" xmlns="http://www.w3.org/2000/svg">
<path fill-rule="evenodd" clip-rule="evenodd" d="M0.605011 7.60603C0.605011 3.97745 3.25345 0.875 6.70919 0.875C8.57905 0.875 10.2235 1.79469 11.33 3.20532C12.4365 1.79474 14.0807 0.875 15.9496 0.875C19.4065 0.875 22.055 3.97884 22.055 7.60603C22.055 9.06485 21.5038 10.4684 20.7076 11.7412C19.9097 13.0171 18.8352 14.2106 17.7117 15.2659C15.4651 17.3759 12.9348 19.0137 11.7591 19.7297C11.4955 19.8902 11.1642 19.8902 10.9006 19.7294C9.72521 19.013 7.19488 17.3751 4.94837 15.2654C3.82481 14.2102 2.75037 13.0168 1.95238 11.7411C1.15626 10.4684 0.605011 9.06486 0.605011 7.60603ZM6.70919 2.525C4.33382 2.525 2.25501 4.70988 2.25501 7.60603C2.25501 8.64968 2.6523 9.74868 3.35125 10.8661C4.04831 11.9804 5.01543 13.0648 6.07792 14.0626C7.96474 15.8346 10.0833 17.2701 11.3301 18.0546C12.5769 17.2707 14.6954 15.8352 16.5821 14.0631C17.6446 13.0653 18.6117 11.9808 19.3088 10.8663C20.0077 9.74878 20.405 8.64969 20.405 7.60603C20.405 4.71126 18.3262 2.525 15.9496 2.525C14.3223 2.525 12.8527 3.53204 12.0691 5.11171C11.9297 5.39247 11.6434 5.57006 11.33 5.57006C11.0166 5.57006 10.7302 5.39247 10.591 5.11171C9.80734 3.53215 8.33779 2.525 6.70919 2.525Z" fill="#FC8507"/>
</svg>
