<svg width="10" height="13" viewBox="0 0 10 13" fill="none" xmlns="http://www.w3.org/2000/svg">
<path d="M0.875 5.57715C0.875 5.03027 0.97526 4.5153 1.17578 4.03223C1.36719 3.54915 1.62923 3.13216 1.96191 2.78125C2.2946 2.43034 2.67969 2.15007 3.11719 1.94043C3.5638 1.73991 4.0332 1.63965 4.52539 1.63965C5.01758 1.63965 5.48698 1.73991 5.93359 1.94043C6.37109 2.15007 6.75619 2.43034 7.08887 2.78125C7.42155 3.13216 7.68359 3.54915 7.875 4.03223C8.07552 4.5153 8.17578 5.03027 8.17578 5.57715C8.17578 5.96908 8.12109 6.35189 8.01172 6.72559C7.90234 7.1084 7.75879 7.4707 7.58105 7.8125C7.40332 8.1543 7.19596 8.48014 6.95898 8.79004C6.73112 9.09993 6.49414 9.38704 6.24805 9.65137C6.00195 9.91569 5.76042 10.1527 5.52344 10.3623C5.28646 10.5719 5.07227 10.7497 4.88086 10.8955C4.81706 10.9502 4.75326 11.0003 4.68945 11.0459C4.62565 11.0915 4.56641 11.1325 4.51172 11.1689C4.46615 11.1325 4.41374 11.0915 4.35449 11.0459C4.29525 11.0003 4.22917 10.9502 4.15625 10.8955C3.96484 10.7497 3.75293 10.5719 3.52051 10.3623C3.28809 10.1527 3.04883 9.91569 2.80273 9.65137C2.55664 9.38704 2.3151 9.09993 2.07812 8.79004C1.85026 8.48014 1.64746 8.1543 1.46973 7.8125C1.29199 7.4707 1.14844 7.11296 1.03906 6.73926C0.929688 6.35645 0.875 5.96908 0.875 5.57715ZM4.2793 12.0713C4.2793 12.0713 4.28841 12.0553 4.30664 12.0234C4.32487 11.9915 4.39323 11.8844 4.51172 11.7021L4.75781 12.0713C4.6849 12.1169 4.60514 12.1396 4.51855 12.1396C4.43197 12.1396 4.35221 12.1169 4.2793 12.0713ZM4.2793 12.0713L4.51172 11.7021C4.63021 11.8844 4.70085 11.9915 4.72363 12.0234C4.74642 12.0553 4.75781 12.0713 4.75781 12.0713L4.77148 12.0576C4.77148 12.0576 4.77604 12.0553 4.78516 12.0508C4.79427 12.0462 4.80339 12.0394 4.8125 12.0303C4.82161 12.0212 4.83756 12.0098 4.86035 11.9961C4.88314 11.9824 4.91276 11.9619 4.94922 11.9346C5.00391 11.8981 5.07227 11.8503 5.1543 11.791C5.23633 11.7318 5.32747 11.6611 5.42773 11.5791C5.62826 11.4242 5.85384 11.235 6.10449 11.0117C6.35514 10.7884 6.61263 10.5355 6.87695 10.2529C7.14128 9.97038 7.4056 9.66048 7.66992 9.32324C7.92513 8.97689 8.15527 8.60775 8.36035 8.21582C8.56543 7.82389 8.73177 7.40462 8.85938 6.95801C8.98698 6.52051 9.05078 6.06022 9.05078 5.57715C9.05078 4.9209 8.93229 4.30111 8.69531 3.71777C8.45833 3.13444 8.13704 2.62402 7.73145 2.18652C7.32585 1.74902 6.84961 1.40267 6.30273 1.14746C5.74674 0.892253 5.1543 0.764648 4.52539 0.764648C3.89648 0.764648 3.30404 0.892253 2.74805 1.14746C2.20117 1.40267 1.72493 1.74902 1.31934 2.18652C0.913737 2.62402 0.592448 3.13444 0.355469 3.71777C0.11849 4.30111 0 4.9209 0 5.57715C0 6.06022 0.0638021 6.52051 0.191406 6.95801C0.31901 7.39551 0.485352 7.8125 0.69043 8.20898C0.895508 8.60547 1.12565 8.97689 1.38086 9.32324C1.63607 9.66048 1.89583 9.97038 2.16016 10.2529C2.42448 10.5355 2.68197 10.7884 2.93262 11.0117C3.18327 11.235 3.40885 11.4242 3.60938 11.5791C3.70964 11.6611 3.80078 11.7318 3.88281 11.791C3.96484 11.8503 4.0332 11.8981 4.08789 11.9346C4.11523 11.9619 4.1403 11.9824 4.16309 11.9961C4.18587 12.0098 4.20638 12.0212 4.22461 12.0303C4.23372 12.0394 4.24284 12.0462 4.25195 12.0508C4.26107 12.0553 4.26562 12.0576 4.26562 12.0576L4.2793 12.0713ZM3.21289 5.29004C3.21289 4.92546 3.34049 4.61556 3.5957 4.36035C3.85091 4.10514 4.16081 3.97754 4.52539 3.97754C4.88997 3.97754 5.19987 4.10514 5.45508 4.36035C5.71029 4.61556 5.83789 4.92546 5.83789 5.29004C5.83789 5.64551 5.71029 5.95312 5.45508 6.21289C5.19987 6.47266 4.88997 6.60254 4.52539 6.60254C4.16081 6.60254 3.85091 6.47266 3.5957 6.21289C3.34049 5.95312 3.21289 5.64551 3.21289 5.29004ZM4.52539 3.10254C3.92383 3.10254 3.40885 3.31445 2.98047 3.73828C2.55208 4.16211 2.33789 4.67936 2.33789 5.29004C2.33789 5.8916 2.55208 6.40658 2.98047 6.83496C3.40885 7.26335 3.92383 7.47754 4.52539 7.47754C5.12695 7.47754 5.64193 7.26335 6.07031 6.83496C6.4987 6.40658 6.71289 5.8916 6.71289 5.29004C6.71289 4.67936 6.4987 4.16211 6.07031 3.73828C5.64193 3.31445 5.12695 3.10254 4.52539 3.10254Z" fill="#FC8507"/>
</svg>
