<svg width="21" height="21" viewBox="0 0 21 21" fill="none" xmlns="http://www.w3.org/2000/svg">
<path fill-rule="evenodd" clip-rule="evenodd" d="M10.435 2.26923C5.82024 2.26923 2.07923 6.01024 2.07923 10.625C2.07923 12.6529 2.80164 14.5121 4.00315 15.9592C5.4692 14.4599 7.43901 13.2237 10.435 13.2237C13.4296 13.2237 15.3995 14.4501 16.8677 15.9581C18.0687 14.5112 18.7908 12.6524 18.7908 10.625C18.7908 6.01024 15.0498 2.26923 10.435 2.26923ZM15.7957 17.0347C14.5362 15.7338 12.9295 14.7429 10.435 14.7429C7.94336 14.7429 6.336 15.74 5.07528 17.0356C6.52605 18.2498 8.39517 18.9808 10.435 18.9808C12.4753 18.9808 14.3448 18.2495 15.7957 17.0347ZM0.559998 10.625C0.559998 5.17119 4.98119 0.75 10.435 0.75C15.8888 0.75 20.31 5.17119 20.31 10.625C20.31 16.0788 15.8888 20.5 10.435 20.5C4.98119 20.5 0.559998 16.0788 0.559998 10.625ZM10.435 6.10724C8.99978 6.10724 7.83631 7.27071 7.83631 8.70593C7.83631 10.1411 8.99978 11.3046 10.435 11.3046C11.8702 11.3046 13.0337 10.1411 13.0337 8.70593C13.0337 7.27071 11.8702 6.10724 10.435 6.10724ZM6.31708 8.70593C6.31708 6.43166 8.16073 4.58801 10.435 4.58801C12.7093 4.58801 14.5529 6.43166 14.5529 8.70593C14.5529 10.9802 12.7093 12.8238 10.435 12.8238C8.16073 12.8238 6.31708 10.9802 6.31708 8.70593Z" fill="#FC8507"/>
</svg>
