<svg width="20" height="21" viewBox="0 0 20 21" fill="none" xmlns="http://www.w3.org/2000/svg">
<path d="M4.72927 4.74289C4.72927 3.61293 5.66662 2.69716 6.82321 2.69716H11.1665C11.4858 2.69716 11.7884 2.76695 12.0591 2.89177C12.1967 2.95517 12.3436 3.00001 12.4951 3.00001H13.2151C13.6321 3.00001 13.8715 2.54955 13.5654 2.26643C12.9401 1.68804 12.0956 1.33334 11.1665 1.33334H6.82321C4.89565 1.33334 3.33331 2.85972 3.33331 4.74289V16.2572C3.33331 18.1403 4.89565 19.6667 6.82321 19.6667H11.1656C11.9782 19.6667 12.808 19.421 13.4509 18.9816C13.7896 18.75 13.586 18.3028 13.1756 18.3028C12.5075 18.3028 11.8476 18.3028 11.1656 18.3028H6.82321C5.66662 18.3028 4.72927 17.3871 4.72927 16.2572V4.74289Z" fill="url(#paint0_linear_1_95)"/>
<path d="M9.87611 15.9347C10.1173 15.5437 9.99561 15.0314 9.60436 14.7905C9.21311 14.5494 8.70044 14.6711 8.45928 15.062L8.45727 15.0653C8.21607 15.4562 8.33778 15.9686 8.72903 16.2095C9.12028 16.4506 9.63294 16.3289 9.87411 15.938L9.87611 15.9347Z" fill="url(#paint1_linear_1_95)"/>
<path d="M17.5 10.5515V11.3334M12.0633 14.9983L12.3981 16.3333H14.651L14.9857 14.9983M12.0452 6.83503L12.38 5.5H14.6329L14.9676 6.83503M14.5359 13.8047H12.477C11.5691 13.8047 10.8333 13.0169 10.8333 12.0449V9.84C10.8333 8.86808 11.5691 8.08032 12.477 8.08032H14.5365C15.4443 8.08032 16.1801 8.86808 16.1801 9.84V12.0449C16.1796 13.0169 15.4437 13.8047 14.5359 13.8047Z" stroke="url(#paint2_linear_1_95)" stroke-width="1.25" stroke-miterlimit="10" stroke-linecap="round" stroke-linejoin="round"/>
<path d="M8.33331 4.25001C8.33331 4.01989 8.5199 3.83334 8.74998 3.83334H10.4166C10.6467 3.83334 10.8333 4.01989 10.8333 4.25001C10.8333 4.48013 10.6467 4.66668 10.4166 4.66668H8.74998C8.5199 4.66668 8.33331 4.48013 8.33331 4.25001Z" fill="url(#paint3_linear_1_95)"/>
<defs>
<linearGradient id="paint0_linear_1_95" x1="17.2716" y1="19.6667" x2="17.2716" y2="1.33334" gradientUnits="userSpaceOnUse">
<stop stop-color="#FC8507"/>
<stop offset="1" stop-color="#FFA218"/>
</linearGradient>
<linearGradient id="paint1_linear_1_95" x1="10.4777" y1="16.3333" x2="10.4777" y2="14.6667" gradientUnits="userSpaceOnUse">
<stop stop-color="#FC8507"/>
<stop offset="1" stop-color="#FFA218"/>
</linearGradient>
<linearGradient id="paint2_linear_1_95" x1="19.4106" y1="16.3333" x2="19.4106" y2="5.5" gradientUnits="userSpaceOnUse">
<stop stop-color="#FC8507"/>
<stop offset="1" stop-color="#FFA218"/>
</linearGradient>
<linearGradient id="paint3_linear_1_95" x1="11.5498" y1="4.66668" x2="11.5498" y2="3.83334" gradientUnits="userSpaceOnUse">
<stop stop-color="#FC8507"/>
<stop offset="1" stop-color="#FFA218"/>
</linearGradient>
</defs>
</svg>
