<svg width="20" height="21" viewBox="0 0 20 21" fill="none" xmlns="http://www.w3.org/2000/svg">
<path d="M13.3556 18.8333H6.73376C4.85456 18.8333 3.33331 17.3421 3.33331 15.5V5.49999C3.33331 3.65788 4.85456 2.16666 6.73376 2.16666H13.2662C15.1454 2.16666 16.6666 3.65788 16.6666 5.49999V15.5C16.6666 16.3772 16.3087 17.1667 15.6823 17.8684C15.0559 18.4824 14.2506 18.8333 13.3556 18.8333ZM6.73376 3.57016C5.65994 3.57016 4.76508 4.35964 4.76508 5.49999V15.5C4.76508 16.5527 5.65994 17.4298 6.73376 17.4298H13.2662C13.8031 17.4298 14.3401 17.2544 14.698 16.8157C15.0559 16.4649 15.3244 15.9386 15.3244 15.4122V5.49999C15.3244 4.44736 14.4295 3.57016 13.2662 3.57016H6.73376ZM10.0447 15.5877C7.7181 15.5877 5.8389 13.7456 5.8389 11.4649C5.8389 9.18424 7.7181 7.3421 10.0447 7.3421C11.9239 7.3421 13.5346 8.48245 14.0716 10.2368C14.1611 10.5877 14.2506 11.0263 14.2506 11.4649C14.2506 13.7456 12.3713 15.5877 10.0447 15.5877ZM7.18119 11.8157C7.36015 13.2193 8.61298 14.2719 10.0447 14.2719C11.566 14.2719 12.9082 13.0438 12.9082 11.5527C11.9239 12.2544 10.5816 12.2544 9.59731 11.5527C9.1499 11.2895 8.61298 11.2017 8.07605 11.3772L7.18119 11.8157ZM8.7919 9.97366C9.32881 9.97366 9.95523 10.1491 10.4026 10.5C10.9396 10.8509 11.6555 10.8509 12.1924 10.5L12.6398 10.2368C12.1924 9.27191 11.1186 8.65788 10.0447 8.65788C8.7919 8.65788 7.80759 9.35966 7.36015 10.4122L7.62861 10.3246C7.98655 10.0614 8.43398 9.97366 8.7919 9.97366ZM6.91273 6.11402C6.82325 6.11402 6.73376 6.11402 6.55479 6.02631C6.28633 5.85086 6.19685 5.41227 6.37582 5.14911C6.55479 4.88596 7.00221 4.79823 7.27067 4.97367C7.53913 5.14911 7.62861 5.58771 7.44965 5.85086C7.36016 6.02631 7.18119 6.11402 6.91273 6.11402ZM13.6241 6.11402H9.68681C9.32881 6.11402 8.9709 5.85086 8.9709 5.41227C8.9709 4.97367 9.23931 4.71051 9.68681 4.71051H13.6241C13.9821 4.71051 14.3401 4.97367 14.3401 5.41227C14.3401 5.85086 13.9821 6.11402 13.6241 6.11402Z" fill="url(#paint0_linear_1_85)"/>
<defs>
<linearGradient id="paint0_linear_1_85" x1="20.4881" y1="18.8333" x2="20.4881" y2="2.16666" gradientUnits="userSpaceOnUse">
<stop stop-color="#FC8507"/>
<stop offset="1" stop-color="#FFA218"/>
</linearGradient>
</defs>
</svg>
