<svg width="20" height="21" viewBox="0 0 20 21" fill="none" xmlns="http://www.w3.org/2000/svg">
<path d="M11.0833 18.3333H7.75002C7.50002 18.3333 7.25002 18.1667 7.16669 17.9167L5.50002 12.25C3.83335 11.4167 2.66669 9.66667 2.66669 7.74999C2.66669 4.91666 4.91669 2.66666 7.75002 2.66666C10.0833 2.66666 16.5833 4.83332 16.8333 4.91666C17.0833 4.99999 17.25 5.24999 17.25 5.49999V9.91667C17.25 10.1667 17.0833 10.4167 16.8333 10.5C16.5833 10.5833 10.0833 12.75 7.75002 12.75C7.50002 12.75 7.16669 12.75 6.91669 12.6667L8.25002 17H10.25L9.41668 14.5C9.33334 14.1667 9.50001 13.8333 9.83334 13.75C10.1667 13.6667 10.5 13.8333 10.5833 14.1667L11.6667 17.5C11.75 17.6667 11.6667 17.9167 11.5833 18.0833C11.5 18.25 11.3333 18.3333 11.0833 18.3333ZM7.75002 3.91666C5.66669 3.91666 3.91669 5.66666 3.91669 7.74999C3.91669 9.83334 5.66669 11.5833 7.75002 11.5833C9.33334 11.5833 13.9167 10.25 16 9.50001V5.91666C13.9167 5.24999 9.41668 3.91666 7.75002 3.91666ZM7.75002 10C6.50002 10 5.50002 9.00001 5.50002 7.74999C5.50002 6.49999 6.50002 5.49999 7.75002 5.49999C9.00001 5.49999 10 6.49999 10 7.74999C10 9.00001 9.00001 10 7.75002 10ZM7.75002 6.66666C7.25002 6.66666 6.75002 7.16666 6.75002 7.74999C6.75002 8.33332 7.25002 8.74999 7.75002 8.74999C8.25002 8.74999 8.75001 8.24999 8.75001 7.74999C8.75001 7.24999 8.33334 6.66666 7.75002 6.66666Z" fill="url(#paint0_linear_1_90)"/>
<defs>
<linearGradient id="paint0_linear_1_90" x1="21.4297" y1="18.3333" x2="21.4297" y2="2.66666" gradientUnits="userSpaceOnUse">
<stop stop-color="#FC8507"/>
<stop offset="1" stop-color="#FFA218"/>
</linearGradient>
</defs>
</svg>
