<svg width="78" height="20" viewBox="0 0 78 20" fill="none" xmlns="http://www.w3.org/2000/svg">
<path fill-rule="evenodd" clip-rule="evenodd" d="M20.4807 10.2316C20.4823 9.58935 20.3566 8.95313 20.1107 8.35978C19.8649 7.76643 19.5038 7.22772 19.0484 6.77484C18.5955 6.31943 18.0568 5.95835 17.4635 5.7125C16.8701 5.46666 16.2339 5.34093 15.5916 5.34258H5.13357V15.1206H15.5916C16.234 15.1223 16.8703 14.9966 17.4638 14.7508C18.0573 14.5049 18.5961 14.1438 19.0491 13.6884C19.5043 13.2356 19.8653 12.697 20.111 12.1037C20.3568 11.5105 20.4824 10.8744 20.4807 10.2323V10.2316ZM25.3239 10.2316C25.3239 15.6058 20.9665 19.9632 15.5916 19.9632H0.290344V0.5H15.5916C20.9665 0.5 25.3239 4.85677 25.3239 10.2316ZM75.9329 9.59613C75.3701 9.03209 74.7015 8.58478 73.9653 8.27987C73.2292 7.97496 72.44 7.81846 71.6432 7.81936V7.8271H58.7671C58.4363 7.82676 58.1191 7.69519 57.8852 7.46126C57.6513 7.22734 57.5197 6.91017 57.5194 6.57935C57.5194 5.89161 58.0787 5.33161 58.7671 5.33161H74.0284C74.6677 5.33161 75.2807 5.07767 75.7328 4.62565C76.1848 4.17362 76.4387 3.56055 76.4387 2.92129C76.4387 2.28203 76.1848 1.66896 75.7328 1.21693C75.2807 0.764912 74.6677 0.510968 74.0284 0.510968H58.7671C57.9491 0.510968 57.1542 0.672258 56.4039 0.989032C55.6833 1.29332 55.0286 1.7346 54.4761 2.28839C53.9224 2.84109 53.4811 3.49599 53.1768 4.21677C52.8601 4.96412 52.6975 5.76769 52.6987 6.57935C52.6987 7.39742 52.86 8.19226 53.1768 8.94194C53.481 9.66279 53.9223 10.3177 54.4761 10.8703C55.039 11.4347 55.7078 11.8823 56.4442 12.1874C57.1806 12.4924 57.97 12.6489 58.7671 12.6477H71.6432V12.64C72.3303 12.64 72.8891 13.1987 72.8891 13.8852C72.8889 14.2156 72.7576 14.5324 72.524 14.7661C72.2904 14.9998 71.9737 15.1313 71.6432 15.1316H55.1091C54.4698 15.1316 53.8567 15.3856 53.4047 15.8376C52.9527 16.2896 52.6987 16.9027 52.6987 17.5419C52.6987 18.1812 52.9527 18.7943 53.4047 19.2463C53.8567 19.6983 54.4698 19.9523 55.1091 19.9523H71.6432C72.44 19.9532 73.2292 19.7968 73.9653 19.4918C74.7015 19.1869 75.3702 18.7396 75.9329 18.1755C76.4865 17.623 76.9275 16.9683 77.2316 16.2477C77.5485 15.5007 77.7111 14.6973 77.7097 13.8858C77.7107 13.089 77.5542 12.2998 77.2493 11.5637C76.9444 10.8275 76.497 10.1589 75.9329 9.59613ZM46.662 0.5H51.4826V17.5419C51.4825 18.0186 51.3411 18.4846 51.0762 18.881C50.8113 19.2773 50.4349 19.5862 49.9944 19.7686C49.554 19.9509 49.0693 19.9986 48.6018 19.9056C48.1343 19.8125 47.7048 19.5829 47.3678 19.2458L31.2923 7.62645V19.9632H26.471V2.92129C26.4711 2.44458 26.6125 1.9786 26.8774 1.58226C27.1423 1.18593 27.5187 0.877039 27.9592 0.694661C28.3996 0.512283 28.8842 0.464604 29.3518 0.557654C29.8193 0.650704 30.2488 0.880304 30.5858 1.21742L46.6613 12.8368L46.662 0.5Z" fill="white"/>
</svg>
