<svg width="19" height="19" viewBox="0 0 19 19" fill="none" xmlns="http://www.w3.org/2000/svg">
<path fill-rule="evenodd" clip-rule="evenodd" d="M8.15799 2.25C6.546 2.25 5.00004 2.89036 3.86019 4.0302C2.72035 5.17005 2.07999 6.71601 2.07999 8.328C2.07999 9.93998 2.72035 11.4859 3.86019 12.6258C5.00004 13.7656 6.546 14.406 8.15799 14.406C9.76997 14.406 11.3159 13.7656 12.4558 12.6258C13.5956 11.4859 14.236 9.93998 14.236 8.328C14.236 6.71601 13.5956 5.17005 12.4558 4.0302C11.3159 2.89036 9.76997 2.25 8.15799 2.25ZM0.579987 8.328C0.579958 7.11358 0.871796 5.91694 1.43092 4.83889C1.99004 3.76084 2.80006 2.83296 3.79275 2.1334C4.78544 1.43385 5.93172 0.983118 7.13502 0.819182C8.33832 0.655246 9.5634 0.782905 10.707 1.19141C11.8507 1.59991 12.8794 2.27728 13.7066 3.16647C14.5337 4.05566 15.135 5.13062 15.4599 6.30078C15.7847 7.47095 15.8235 8.70204 15.5731 9.89036C15.3227 11.0787 14.7904 12.1894 14.021 13.129L18.182 17.291C18.2557 17.3597 18.3148 17.4425 18.3558 17.5345C18.3968 17.6265 18.4188 17.7258 18.4206 17.8265C18.4224 17.9272 18.4038 18.0272 18.3661 18.1206C18.3284 18.214 18.2722 18.2988 18.201 18.37C18.1298 18.4413 18.045 18.4974 17.9516 18.5351C17.8582 18.5728 17.7582 18.5914 17.6575 18.5896C17.5568 18.5878 17.4574 18.5658 17.3654 18.5248C17.2734 18.4838 17.1906 18.4247 17.122 18.351L12.96 14.191C11.85 15.1002 10.5047 15.6756 9.08047 15.8503C7.65628 16.025 6.21177 15.7917 4.91495 15.1777C3.61812 14.5636 2.52228 13.594 1.75488 12.3816C0.987475 11.1692 0.580049 9.76385 0.579987 8.329V8.328Z" fill="#AFAFAF"/>
</svg>
